# Blender v2.79 (sub 0) OBJ File: ''
# www.blender.org
mtllib strange_cube.mtl
o Cube
v 1.000000 -1.000000 -1.000000
v 1.000000 -1.000000 1.000000
v -1.000000 -1.000000 1.000000
v -1.000000 -1.000000 -1.000000
v 1.000000 1.000000 -0.999999
v 1.813889 1.000000 1.000001
v -1.000000 1.681559 1.000000
v -1.000000 1.000000 -1.000000
v 1.000000 -1.000000 0.000000
v 0.000000 -1.000000 -1.000000
v 1.906170 0.000000 -1.000000
v 0.000000 -1.000000 1.740682
v 1.000000 0.000000 1.000000
v -1.000000 -1.000000 -0.000000
v -1.000000 0.000000 1.000000
v -1.000000 0.000000 -1.000000
v 1.000000 1.000000 0.000001
v 0.000000 1.768988 -1.000000
v -0.000001 1.000000 1.000000
v -1.000000 1.000000 -0.000000
v 0.000000 0.000000 -1.000000
v -1.000000 0.000000 -0.000000
v -0.000000 0.718264 1.000000
v 1.000000 0.000000 0.000000
v -0.000000 1.000000 0.000000
v 0.000000 -1.000000 -0.000000
v 1.000000 -1.000000 0.500000
v -0.500000 -1.000000 -1.000000
v 1.000000 0.500000 -1.000000
v -0.500000 -1.000000 1.740682
v 1.813889 0.500000 1.000000
v -1.000000 -1.000000 -0.500000
v -1.000000 0.500000 1.000000
v -1.000000 0.500000 -1.000000
v 1.813889 1.000000 0.500001
v -0.500000 1.000000 -1.000000
v -0.500000 1.681559 1.000000
v -1.000000 1.000000 -0.500000
v 1.000000 -1.000000 -0.500000
v 0.500000 -1.000000 -1.000000
v 1.906170 -0.500000 -1.000000
v 0.500000 -1.000000 1.000000
v 1.000000 -0.500000 1.000000
v -1.000000 -1.000000 0.500000
v -1.000000 -0.500000 1.000000
v -1.000000 -0.500000 -1.000000
v 1.000000 1.000000 -0.499999
v 0.500000 1.768988 -1.000000
v 0.499999 1.000000 1.000000
v -1.000000 1.681559 0.500000
v -0.500000 0.000000 -1.000000
v 0.500000 0.000000 -1.000000
v 0.000000 0.500000 -1.000000
v 0.000000 -0.500000 -1.000000
v -1.000000 0.000000 -0.500000
v -1.000000 0.000000 0.500000
v -1.000000 -0.500000 -0.000000
v -1.000000 0.500000 -0.000000
v -0.500000 0.718264 1.000000
v 0.500000 0.000000 1.000000
v -0.000000 0.218264 1.740682
v -0.000000 0.500000 1.000000
v 1.000000 0.000000 0.500000
v 1.906170 0.000000 -0.500000
v 1.000000 -0.500000 0.000000
v 1.000000 0.500000 0.000000
v -0.000000 1.000000 0.500000
v 0.000000 1.768988 -0.500000
v 0.500000 1.000000 0.000000
v -0.500000 1.000000 0.000000
v -0.500000 -1.000000 -0.000000
v 0.500000 -1.000000 -0.000000
v 0.000000 -1.000000 -0.500000
v 0.000000 -1.000000 0.500000
v 0.500000 -1.000000 0.500000
v 0.500000 -1.000000 -0.500000
v -0.500000 -1.000000 -0.500000
v -0.500000 1.000000 -0.500000
v 0.500000 1.768988 -0.500000
v 0.500000 1.000000 0.500000
v 1.000000 0.500000 -0.500000
v 1.906170 -0.500000 -0.500000
v 1.000000 -0.500000 0.500000
v 0.500000 0.500000 1.000000
v 0.500000 -0.500000 1.000000
v -0.500000 0.218264 1.740682
v -1.000000 0.500000 0.500000
v -1.000000 -0.500000 0.500000
v -1.000000 -0.500000 -0.500000
v 0.500000 -0.500000 -1.000000
v 0.500000 0.500000 -1.000000
v -0.500000 0.500000 -1.000000
v -0.500000 -0.500000 -1.000000
v -1.000000 0.500000 -0.500000
v -0.500000 0.500000 1.000000
v 1.813889 0.500000 0.500000
v -0.500000 1.681559 0.500000
v -0.500000 -1.000000 0.500000
vn 0.0000 -1.0000 -0.0000
vn 0.0000 1.0000 -0.0000
vn 1.0000 0.0000 0.0000
vn -0.0000 0.0000 1.0000
vn -1.0000 -0.0000 -0.0000
vn 0.0000 0.0000 -1.0000
vn -0.8233 0.3379 0.4562
vn 0.8233 0.3379 0.4562
vn 0.4831 -0.0000 0.8756
vn -0.0000 0.5451 0.8384
vn -0.5205 0.6769 0.5205
vn -0.8384 0.5451 -0.0000
vn 0.5205 0.6769 0.5205
vn 0.8384 0.5451 0.0000
vn 0.6152 0.5575 0.5575
vn 0.4831 0.8756 0.0000
vn 0.6152 -0.5575 0.5575
vn 0.4831 -0.8756 0.0000
vn 0.8288 0.0000 0.5595
vn -0.8288 -0.0000 0.5595
vn 0.0000 0.8288 0.5595
vn 0.5234 -0.8521 0.0000
vn 0.6558 -0.5338 -0.5338
vn 0.5234 0.0000 -0.8521
vn 0.8063 0.5915 0.0000
vn 0.4907 0.7200 -0.4907
vn 0.0000 0.5915 -0.8063
usemtl Material
s off
f 98//1 30//1 3//1 44//1
f 97//2 50//2 7//2 37//2
f 96//3 35//3 6//3 31//3
f 95//4 37//4 7//4 33//4
f 94//5 38//5 8//5 34//5
f 93//6 28//6 4//6 46//6
f 92//6 51//6 16//6 34//6
f 91//6 52//6 21//6 53//6
f 90//6 40//6 10//6 54//6
f 89//5 55//5 16//5 46//5
f 88//5 56//5 22//5 57//5
f 87//5 50//5 20//5 58//5
f 86//7 59//7 15//7 45//7
f 85//8 60//8 23//8 61//8
f 84//4 49//4 19//4 62//4
f 83//3 63//3 13//3 43//3
f 82//9 64//9 24//9 65//9
f 81//3 47//3 17//3 66//3
f 80//2 67//2 19//2 49//2
f 79//10 68//10 25//10 69//10
f 78//2 38//2 20//2 70//2
f 77//1 71//1 14//1 32//1
f 76//1 72//1 26//1 73//1
f 75//1 42//1 12//1 74//1
f 72//1 75//1 74//1 26//1
f 9//1 27//1 75//1 72//1
f 27//1 2//1 42//1 75//1
f 40//1 76//1 73//1 10//1
f 1//1 39//1 76//1 40//1
f 39//1 9//1 72//1 76//1
f 28//1 77//1 32//1 4//1
f 10//1 73//1 77//1 28//1
f 73//1 26//1 71//1 77//1
f 68//11 78//11 70//11 25//11
f 18//12 36//12 78//12 68//12
f 36//2 8//2 38//2 78//2
f 47//13 79//13 69//13 17//13
f 5//14 48//14 79//14 47//14
f 48//2 18//2 68//2 79//2
f 35//2 80//2 49//2 6//2
f 17//2 69//2 80//2 35//2
f 69//2 25//2 67//2 80//2
f 64//15 81//15 66//15 24//15
f 11//16 29//16 81//16 64//16
f 29//3 5//3 47//3 81//3
f 39//17 82//17 65//17 9//17
f 1//18 41//18 82//18 39//18
f 41//3 11//3 64//3 82//3
f 27//3 83//3 43//3 2//3
f 9//3 65//3 83//3 27//3
f 65//3 24//3 63//3 83//3
f 60//4 84//4 62//4 23//4
f 13//4 31//4 84//4 60//4
f 31//4 6//4 49//4 84//4
f 42//19 85//19 61//19 12//19
f 2//4 43//4 85//4 42//4
f 43//4 13//4 60//4 85//4
f 30//20 86//20 45//20 3//20
f 12//4 61//4 86//4 30//4
f 61//21 23//21 59//21 86//21
f 56//5 87//5 58//5 22//5
f 15//5 33//5 87//5 56//5
f 33//5 7//5 50//5 87//5
f 44//5 88//5 57//5 14//5
f 3//5 45//5 88//5 44//5
f 45//5 15//5 56//5 88//5
f 32//5 89//5 46//5 4//5
f 14//5 57//5 89//5 32//5
f 57//5 22//5 55//5 89//5
f 52//6 90//6 54//6 21//6
f 11//6 41//6 90//6 52//6
f 41//6 1//6 40//6 90//6
f 48//6 91//6 53//6 18//6
f 5//6 29//6 91//6 48//6
f 29//6 11//6 52//6 91//6
f 36//6 92//6 34//6 8//6
f 18//6 53//6 92//6 36//6
f 53//6 21//6 51//6 92//6
f 51//6 93//6 46//6 16//6
f 21//6 54//6 93//6 51//6
f 54//6 10//6 28//6 93//6
f 55//5 94//5 34//5 16//5
f 22//5 58//5 94//5 55//5
f 58//5 20//5 38//5 94//5
f 59//4 95//4 33//4 15//4
f 23//6 62//6 95//6 59//6
f 62//4 19//4 37//4 95//4
f 63//22 96//22 31//22 13//22
f 24//23 66//23 96//23 63//23
f 66//24 17//24 35//24 96//24
f 67//25 97//25 37//25 19//25
f 25//26 70//26 97//26 67//26
f 70//27 20//27 50//27 97//27
f 71//1 98//1 44//1 14//1
f 26//1 74//1 98//1 71//1
f 74//1 12//1 30//1 98//1
